<svg width="28" height="29" viewBox="0 0 28 29" fill="none" xmlns="http://www.w3.org/2000/svg">
<path d="M8.16669 10.4167L11.599 12.446C13.6001 13.6291 14.4 13.6291 16.401 12.446L19.8334 10.4167" stroke="#616161" stroke-width="1.75" stroke-linecap="round" stroke-linejoin="round"/>
<path d="M2.35171 16.2216C2.42798 19.798 2.46611 21.5862 3.78576 22.9109C5.10541 24.2356 6.94204 24.2817 10.6153 24.374C12.8792 24.4309 15.1208 24.4309 17.3847 24.374C21.058 24.2817 22.8945 24.2356 24.2142 22.9109C25.5339 21.5862 25.572 19.798 25.6482 16.2216C25.6728 15.0716 25.6728 13.9283 25.6482 12.7785C25.572 9.20198 25.5339 7.41375 24.2142 6.08908C22.8945 4.76442 21.058 4.71827 17.3847 4.62598C15.1208 4.56909 12.8792 4.56909 10.6153 4.62597C6.94204 4.71825 5.10541 4.76439 3.78576 6.08907C2.46611 7.41374 2.42797 9.20197 2.35171 12.7784C2.32718 13.9283 2.32718 15.0716 2.35171 16.2216Z" stroke="#616161" stroke-width="1.75" stroke-linejoin="round"/>
</svg>
