<svg width="40" height="40" viewBox="0 0 40 40" fill="none" xmlns="http://www.w3.org/2000/svg">
<rect x="0.000854492" width="40" height="40" rx="20" fill="#4C68D5"/>
<path d="M24.4777 11.3486L18.2049 7.55515C17.6128 7.19298 16.9397 7.00156 16.254 7.00037C14.2103 7.00037 12.3356 8.71231 12.3356 11.1051V25.3074L24.4777 17.967C26.9091 16.4947 26.9091 12.82 24.4777 11.3486ZM15.8492 18.448V10.868L22.1172 14.6567L15.8492 18.448Z" fill="white"/>
<path d="M27.8497 32.9845C27.8497 33.0274 15.9917 32.9661 15.9917 32.9661L14.9442 32.8426C13.2476 32.6441 11.9451 31.1234 12.0028 29.3347C12.0028 29.2918 12.0065 29.2519 12.009 29.2104C12.0556 28.4366 12.3269 27.6962 12.7867 27.0885C12.9734 26.8462 13.2018 26.6426 13.46 26.4883L22.479 21.0725C24.3423 19.9535 25.894 19.5621 26.7008 17.5342C26.9983 16.7757 27.1268 15.9562 27.0765 15.138L27.0454 14.5866L27.966 19.9205C28.0839 20.8264 27.9021 21.7538 27.422 22.5169C27.1334 22.9785 26.7484 23.3653 26.2959 23.6479L15.8304 28.8944C15.8199 28.9006 15.8098 28.9075 15.8001 28.915C15.5136 29.1293 15.6904 29.6069 16.0412 29.5868L24.7524 29.6404C26.4441 29.5418 27.8534 31.2113 27.8497 32.9845Z" fill="white"/>
</svg>
